<?xml version="1.0" encoding="UTF-8"?>
<svg width="128" height="128" version="1.1" viewBox="0 0 128 128" xmlns="http://www.w3.org/2000/svg">
 <defs>
  <linearGradient id="gradient1" x1="0%" y1="0%" x2="0%" y2="100%">
   <stop offset="0%" style="stop-color:#6b46c1;stop-opacity:1"/>
   <stop offset="100%" style="stop-color:#9333ea;stop-opacity:1"/>
  </linearGradient>
 </defs>
 <rect width="128" height="128" fill="url(#gradient1)" rx="16"/>
 <g transform="translate(64,64)">
  <!-- Guitar body -->
  <ellipse cx="0" cy="5" rx="28" ry="32" fill="#8b4513" opacity="0.9"/>
  <ellipse cx="0" cy="5" rx="20" ry="24" fill="#1a1a2e"/>
  <!-- Guitar neck -->
  <rect x="-4" y="-45" width="8" height="50" fill="#654321"/>
  <!-- Strings -->
  <line x1="-6" y1="-40" x2="-6" y2="30" stroke="#ffd700" stroke-width="1"/>
  <line x1="-2" y1="-40" x2="-2" y2="30" stroke="#ffd700" stroke-width="1"/>
  <line x1="2" y1="-40" x2="2" y2="30" stroke="#ffd700" stroke-width="1"/>
  <line x1="6" y1="-40" x2="6" y2="30" stroke="#ffd700" stroke-width="1"/>
  <!-- Sound wave effects -->
  <path d="M -45,-10 Q -35,-15 -30,-10 T -20,-10" fill="none" stroke="#60a5fa" stroke-width="2" opacity="0.7"/>
  <path d="M 30,-10 Q 35,-5 40,-10 T 50,-10" fill="none" stroke="#60a5fa" stroke-width="2" opacity="0.7"/>
  <path d="M -45,0 Q -35,5 -30,0 T -20,0" fill="none" stroke="#818cf8" stroke-width="2" opacity="0.6"/>
  <path d="M 30,0 Q 35,5 40,0 T 50,0" fill="none" stroke="#818cf8" stroke-width="2" opacity="0.6"/>
  <!-- Musical note -->
  <circle cx="35" cy="-30" r="4" fill="#fbbf24"/>
  <rect x="38" y="-45" width="2" height="15" fill="#fbbf24"/>
 </g>
</svg>
